<svg height="462pt" viewBox="-28 0 462 462" width="462pt" xmlns="http://www.w3.org/2000/svg"><path d="m32 198.019531c.007812-7.726562 6.273438-13.988281 14-14h277.449219v-6c-.007813-7.726562-6.269531-13.988281-14-14h-283.449219c-7.726562.011719-13.992188 6.273438-14 14v207.980469c.007812 7.730469 6.269531 13.992188 14 14h6zm0 0" fill="#d4e1f4"/><g fill="#0635c9"><path d="m124.597656 0c-39.023437.0429688-70.644531 31.667969-70.691406 70.691406v81.328125h-27.90625c-14.351562.015625-25.984375 11.648438-26 26v207.980469c.015625 14.351562 11.648438 25.984375 26 26h236.355469c3.3125 0 6-2.6875 6-6s-2.6875-6-6-6h-236.355469c-7.730469-.007812-13.992188-6.269531-14-14v-207.980469c.007812-7.726562 6.273438-13.988281 14-14h283.449219c7.730469.011719 13.992187 6.273438 14 14v137.980469c0 3.3125 2.6875 6 6 6 3.316406 0 6-2.6875 6-6v-137.980469c-.015625-14.351562-11.644531-25.984375-26-26h-27.90625v-81.328125c-.046875-39.023437-31.667969-70.6484372-70.691407-70.691406zm123.378906 152.019531h-160.503906v-81.328125c.023438-20.496094 16.632813-37.105468 37.125-37.128906h86.253906c20.496094.023438 37.101563 16.632812 37.125 37.128906zm-90.421874-130.457031v-9.5625h20.34375v9.5625zm-91.648438 49.128906c.039062-32.398437 26.292969-58.65625 58.691406-58.691406h20.957032v9.5625h-20.957032c-27.117187.03125-49.09375 22.007812-49.125 49.128906v81.328125h-9.566406zm203.636719 0v81.328125h-9.566407v-81.328125c-.03125-27.121094-22.007812-49.097656-49.125-49.128906h-20.953124v-9.5625h20.953124c32.398438.035156 58.652344 26.292969 58.691407 58.691406zm0 0"/><path d="m127.304688 283.011719c0 6.449219 5.226562 11.675781 11.675781 11.675781 6.445312 0 11.675781-5.230469 11.671875-11.675781 0-6.449219-5.226563-11.675781-11.675782-11.675781-6.441406.007812-11.664062 5.230468-11.671874 11.675781zm12 0c0 .132812-.078126.25-.203126.300781-.121093.050781-.261718.023438-.355468-.070312-.089844-.09375-.121094-.234376-.070313-.355469.050781-.121094.171875-.199219.300781-.199219.179688 0 .328126.144531.328126.324219zm0 0"/><path d="m184.796875 283.011719c0 6.445312 5.226563 11.675781 11.675781 11.675781 6.449219 0 11.675782-5.230469 11.675782-11.675781 0-6.449219-5.226563-11.675781-11.675782-11.675781-6.445312.007812-11.667968 5.230468-11.675781 11.675781zm12 0c0 .132812-.078125.25-.199219.300781-.125.050781-.265625.023438-.355468-.070312-.09375-.09375-.121094-.234376-.070313-.355469.050781-.121094.167969-.199219.300781-.199219.179688 0 .324219.144531.324219.324219zm0 0"/><path d="m242.289062 283.011719c0 6.445312 5.230469 11.675781 11.675782 11.675781 6.449218 0 11.675781-5.230469 11.675781-11.675781 0-6.449219-5.226563-11.675781-11.675781-11.675781-6.445313.007812-11.667969 5.230468-11.675782 11.675781zm12 0c0 .179687-.144531.324219-.324218.324219-.179688 0-.324219-.144532-.324219-.324219 0-.179688.144531-.324219.324219-.324219.179687 0 .324218.144531.324218.324219zm0 0"/><path d="m69.808594 283.011719c0 6.445312 5.226562 11.675781 11.675781 11.675781s11.675781-5.230469 11.675781-11.675781c0-6.449219-5.226562-11.675781-11.675781-11.675781-6.445313.007812-11.667969 5.230468-11.675781 11.675781zm12 0c0 .179687-.144532.324219-.324219.324219s-.324219-.144532-.324219-.324219c0-.179688.144532-.324219.324219-.324219s.324219.144531.324219.324219zm0 0"/></g><path d="m329.449219 310c-41.972657 0-76 34.027344-76 76s34.027343 76 76 76c41.972656 0 76-34.027344 76-76-.046875-41.953125-34.046875-75.953125-76-76zm0 140c-35.34375 0-64-28.652344-64-64s28.65625-64 64-64c35.347656 0 64 28.652344 64 64-.039063 35.328125-28.667969 63.960938-64 64zm0 0" fill="#1ae5be"/><path d="m331.28125 338.148438c-7.207031-.53125-14.304688 1.980468-19.570312 6.929687-5.257813 4.921875-8.25 11.804687-8.261719 19.007813 0 3.316406 2.6875 6 6 6 3.316406 0 6-2.683594 6-6 0-3.886719 1.617187-7.601563 4.464843-10.25 2.84375-2.648438 6.664063-3.992188 10.542969-3.714844 6.132813.441406 11.261719 4.832031 12.644531 10.824218 1.378907 5.992188-1.316406 12.183594-6.640624 15.261719-8.113282 4.808594-13.066407 13.5625-13.011719 22.992188v8.683593c0 3.3125 2.6875 6 6 6 3.316406 0 6-2.6875 6-6v-8.683593c-.058594-5.15625 2.617187-9.953125 7.035156-12.613281 9.886719-5.722657 14.878906-17.226563 12.304687-28.359376-2.574218-11.128906-12.109374-19.273437-23.503906-20.078124zm0 0" fill="#1ae5be"/><path d="m329.449219 415.246094c-5.152344 0-9.332031 4.179687-9.332031 9.335937 0 5.152344 4.179687 9.332031 9.335937 9.332031 5.152344 0 9.332031-4.179687 9.332031-9.335937-.007812-5.152344-4.183594-9.324219-9.335937-9.332031zm0 12c-1.472657 0-2.667969-1.191406-2.667969-2.667969 0-1.472656 1.195312-2.664063 2.667969-2.664063 1.472656 0 2.667969 1.191407 2.667969 2.664063s-1.195313 2.667969-2.667969 2.667969zm0 0" fill="#1ae5be"/></svg>